<svg xmlns="http://www.w3.org/2000/svg" viewBox="0 0 128 128">
  <!-- 付箋1段目（緑）左面 -->
  <path d="M64 108 L64 96 L8 68 L8 80 Z" fill="#4aa858"/>
  <!-- 付箋1段目（緑）右面 -->
  <path d="M64 108 L64 96 L120 68 L120 80 Z" fill="#6bcb77"/>
  <!-- 付箋1段目（緑）上面 -->
  <path d="M64 96 L8 68 L64 40 L120 68 Z" fill="#8fdb98"/>
  
  <!-- 付箋2段目（赤）左面 -->
  <path d="M64 96 L64 84 L8 56 L8 68 Z" fill="#e54545"/>
  <!-- 付箋2段目（赤）右面 -->
  <path d="M64 96 L64 84 L120 56 L120 68 Z" fill="#ff6b6b"/>
  <!-- 付箋2段目（赤）上面 -->
  <path d="M64 84 L8 56 L64 28 L120 56 Z" fill="#ff9a9a"/>
  
  <!-- 付箋3段目（黄色）左面 -->
  <path d="M64 84 L64 72 L8 44 L8 56 Z" fill="#e0a800"/>
  <!-- 付箋3段目（黄色）右面 -->
  <path d="M64 84 L64 72 L120 44 L120 56 Z" fill="#ffd93d"/>
  <!-- 付箋3段目（黄色）上面 -->
  <path d="M64 72 L8 44 L64 16 L120 44 Z" fill="#ffe66d"/>
  
  <!-- めくれた部分（裏面・上半分） -->
  <path d="M28 54 L64 36 L100 54 L64 54 Z" fill="#fff9c4"/>
  <!-- めくれた部分（裏面・下半分） -->
  <path d="M64 72 L28 54 L64 54 L100 54 Z" fill="#ffe66d"/>
</svg>