<svg xmlns="http://www.w3.org/2000/svg" viewBox="0 0 64 64">
  <!-- 円背景 -->
  <circle cx="32" cy="32" r="30" fill="#5D4037"/>
  
  <!-- 付箋1段目（緑）左面 -->
  <path d="M32 50 L32 45 L12 35 L12 40 Z" fill="#4aa858"/>
  <!-- 付箋1段目（緑）右面 -->
  <path d="M32 50 L32 45 L52 35 L52 40 Z" fill="#6bcb77"/>
  <!-- 付箋1段目（緑）上面 -->
  <path d="M32 45 L12 35 L32 25 L52 35 Z" fill="#8fdb98"/>
  
  <!-- 付箋2段目（赤）左面 -->
  <path d="M32 45 L32 40 L12 30 L12 35 Z" fill="#e54545"/>
  <!-- 付箋2段目（赤）右面 -->
  <path d="M32 45 L32 40 L52 30 L52 35 Z" fill="#ff6b6b"/>
  <!-- 付箋2段目（赤）上面 -->
  <path d="M32 40 L12 30 L32 20 L52 30 Z" fill="#ff9a9a"/>
  
  <!-- 付箋3段目（黄色）左面 -->
  <path d="M32 40 L32 35 L12 25 L12 30 Z" fill="#e0a800"/>
  <!-- 付箋3段目（黄色）右面 -->
  <path d="M32 40 L32 35 L52 25 L52 30 Z" fill="#ffd93d"/>
  <!-- 付箋3段目（黄色）上面 -->
  <path d="M32 35 L12 25 L32 15 L52 25 Z" fill="#ffe66d"/>
  
  <!-- めくれた部分（裏面・上半分） -->
  <path d="M19 28 L32 21 L45 28 L32 28 Z" fill="#fff9c4"/>
  <!-- めくれた部分（裏面・下半分） -->
  <path d="M32 35 L19 28 L32 28 L45 28 Z" fill="#ffe66d"/>
</svg>